<?xml version="1.0" encoding="UTF-8" standalone="no"?>
<!-- Created with Inkscape (http://www.inkscape.org/) -->

<svg
   xmlns:dc="http://purl.org/dc/elements/1.1/"
   xmlns:cc="http://creativecommons.org/ns#"
   xmlns:rdf="http://www.w3.org/1999/02/22-rdf-syntax-ns#"
   xmlns:svg="http://www.w3.org/2000/svg"
   xmlns="http://www.w3.org/2000/svg"
   xmlns:sodipodi="http://sodipodi.sourceforge.net/DTD/sodipodi-0.dtd"
   xmlns:inkscape="http://www.inkscape.org/namespaces/inkscape"
   width="37.999939mm"
   height="20.916933mm"
   viewBox="0 0 37.999939 20.916933"
   version="1.1"
   id="svg6401"
   inkscape:version="0.92.4 5da689c313, 2019-01-14"
   sodipodi:docname="impa_logo_light.svg">
  <defs
     id="defs6395" />
  <sodipodi:namedview
     id="base"
     pagecolor="#ffffff"
     bordercolor="#666666"
     borderopacity="1.0"
     inkscape:pageopacity="0.0"
     inkscape:pageshadow="2"
     inkscape:zoom="3.959798"
     inkscape:cx="72.080536"
     inkscape:cy="-1.0228186"
     inkscape:document-units="mm"
     inkscape:current-layer="layer1"
     showgrid="false"
     inkscape:window-width="1440"
     inkscape:window-height="836"
     inkscape:window-x="0"
     inkscape:window-y="27"
     inkscape:window-maximized="1"
     fit-margin-top="0"
     fit-margin-left="0"
     fit-margin-right="0"
     fit-margin-bottom="0" />
  <metadata
     id="metadata6398">
    <rdf:RDF>
      <cc:Work
         rdf:about="">
        <dc:format>image/svg+xml</dc:format>
        <dc:type
           rdf:resource="http://purl.org/dc/dcmitype/StillImage" />
        <dc:title></dc:title>
      </cc:Work>
    </rdf:RDF>
  </metadata>
  <g
     inkscape:label="Layer 1"
     inkscape:groupmode="layer"
     id="layer1"
     transform="translate(-55.083363,-106.17821)">
    <path
       d="m 55.516474,107.62425 h 0.836436 v 3.79483 h -0.836436 z m 0,-1.44604 h 0.836436 v 0.79269 h -0.836436 z"
       style="fill:#e9e9e9;fill-opacity:1;fill-rule:nonzero;stroke:none;stroke-width:0.35277775"
       id="path5338"
       inkscape:connector-curvature="0" />
    <g
       id="g5340"
       transform="matrix(0.35277777,0,0,-0.35277777,57.337618,107.62449)">
      <path
         d="m 0,0 h 2.246 v -1.497 h 0.063 c 0.706,1.06 1.601,1.79 3.306,1.79 1.311,0 2.539,-0.563 3.02,-1.79 0.79,1.104 1.81,1.79 3.367,1.79 2.271,0 3.604,-1 3.604,-3.622 v -7.428 h -2.374 v 6.284 c 0,1.708 -0.105,2.893 -1.957,2.893 -1.6,0 -2.287,-1.061 -2.287,-2.872 v -6.305 H 6.616 v 6.908 c 0,1.479 -0.459,2.269 -1.895,2.269 -1.227,0 -2.353,-1 -2.353,-2.787 v -6.39 H 0 Z"
         style="fill:#e9e9e9;fill-opacity:1;fill-rule:nonzero;stroke:none"
         id="path5342"
         inkscape:connector-curvature="0" />
    </g>
    <g
       id="g5344"
       transform="matrix(0.35277777,0,0,-0.35277777,65.690903,108.18188)">
      <path
         d="m 0,0 c -1.998,0 -3.018,-1.519 -3.018,-3.808 0,-2.163 1.103,-3.786 3.018,-3.786 2.163,0 2.975,1.913 2.975,3.786 C 2.975,-1.853 1.955,0 0,0 M -5.306,1.58 H -3.06 V 0.124 h 0.042 c 0.667,1.229 1.957,1.748 3.331,1.748 3.39,0 5.034,-2.579 5.034,-5.722 0,-2.891 -1.455,-5.618 -4.639,-5.618 -1.374,0 -2.852,0.501 -3.602,1.687 h -0.041 v -5.371 h -2.371 z"
         style="fill:#e9e9e9;fill-opacity:1;fill-rule:nonzero;stroke:none"
         id="path5346"
         inkscape:connector-curvature="0" />
    </g>
    <g
       id="g5348"
       transform="matrix(0.35277777,0,0,-0.35277777,70.696748,109.51785)">
      <path
         d="m 0,0 c -0.728,-0.479 -1.873,-0.458 -2.912,-0.646 -1.021,-0.165 -1.936,-0.542 -1.936,-1.789 0,-1.061 1.352,-1.373 2.184,-1.373 1.041,0 2.664,0.542 2.664,2.04 z m 2.373,-2.995 c 0,-0.585 0.124,-0.813 0.561,-0.813 0.146,0 0.334,0 0.583,0.041 V -5.41 C 3.163,-5.534 2.413,-5.68 2.018,-5.68 c -0.956,0 -1.643,0.332 -1.83,1.31 -0.936,-0.915 -2.457,-1.31 -3.726,-1.31 -1.933,0 -3.683,1.041 -3.683,3.142 0,2.684 2.143,3.118 4.142,3.349 1.705,0.312 3.224,0.126 3.224,1.52 0,1.228 -1.267,1.456 -2.225,1.456 -1.331,0 -2.268,-0.542 -2.373,-1.707 h -2.372 c 0.166,2.769 2.52,3.579 4.892,3.579 2.101,0 4.306,-0.853 4.306,-3.121 z"
         style="fill:#e9e9e9;fill-opacity:1;fill-rule:nonzero;stroke:none"
         id="path5350"
         inkscape:connector-curvature="0" />
    </g>
    <g
       id="g5478"
       transform="matrix(0.35277777,0,0,-0.35277777,60.651048,118.15421)">
      <path
         d="M 0,0 C 1.615,0 3.417,0.099 5.355,0.292 12.869,1.037 20.989,3.002 26.494,4.4 24.737,5.233 22.827,6.105 20.931,6.854 19.728,7.317 18.532,7.741 17.384,8.112 17.376,8.114 17.366,8.118 17.357,8.121 16.593,8.355 15.866,8.558 15.197,8.723 13.354,9.176 10.412,9.793 6.864,10.152 6.75,10.163 6.67,10.172 6.626,10.177 4.773,10.392 3.01,10.502 1.383,10.502 -4.208,10.502 -7.36,9.216 -9.02,8.136 -9.772,7.646 -10.908,6.594 -10.99,5.683 -10.866,1.912 -7.17,0 0,0"
         style="fill:#e9e9e9;fill-opacity:1;fill-rule:nonzero;stroke:none"
         id="path5480"
         inkscape:connector-curvature="0" />
    </g>
    <g
       id="g5482"
       transform="matrix(0.35277777,0,0,-0.35277777,71.355844,116.97536)">
      <path
         d="m 0,0 c -0.474,-0.119 -0.995,-0.252 -1.56,-0.396 l -0.074,-0.019 -0.022,-0.006 c -5.522,-1.404 -14.765,-3.754 -23.14,-4.586 -2.002,-0.199 -3.859,-0.3 -5.523,-0.3 -6.485,0 -10.569,1.515 -12.19,4.509 -4.452,-20.305 -3.615,-24.275 -3.444,-24.796 2.262,-2.053 5.397,-3.092 9.317,-3.092 5.818,0 13.394,2.322 21.913,6.713 7.527,3.882 15.428,9.261 21.678,14.761 5.852,5.15 11.266,8.255 15.51,10.12 C 16.69,2.529 6.672,1.674 0,0"
         style="fill:#e9e9e9;fill-opacity:1;fill-rule:nonzero;stroke:none"
         id="path5484"
         inkscape:connector-curvature="0" />
    </g>
    <g
       id="g5486"
       transform="matrix(0.35277777,0,0,-0.35277777,92.623756,113.71623)">
      <path
         d="m 0,0 c -3.061,6.115 -7.874,9.218 -14.304,9.218 h -10e-4 -10e-4 c -4.988,0 -9.405,-1.916 -10.64,-2.503 L -25.012,6.683 C -27.806,5.388 -43.457,-2 -51.479,-5.789 c 10.695,1.655 20.329,1.677 20.439,1.677 5.928,-0.052 10.438,-1.637 13.412,-4.712 3.445,-3.559 3.592,-8.021 3.595,-8.577 0.208,-4.517 -1.159,-8.763 -4.065,-12.619 -0.484,-0.639 -0.95,-1.217 -1.384,-1.725 5.662,2.732 9.91,5.594 11.999,7.392 1.559,1.286 2.949,2.764 4.14,4.407 3.721,5.12 5.318,11.32 4.385,17.018 C 0.806,-1.899 0.455,-0.915 0,0"
         style="fill:#e9e9e9;fill-opacity:1;fill-rule:nonzero;stroke:none"
         id="path5488"
         inkscape:connector-curvature="0" />
    </g>
    <g
       id="g5490"
       transform="matrix(0.35277777,0,0,-0.35277777,86.920469,119.14657)">
      <path
         d="m 0,0 c -4.386,-3.105 -9.674,-4.678 -15.732,-4.678 -7.937,0 -14.93,2.713 -17.905,4.058 -0.606,-0.496 -1.219,-1.019 -1.832,-1.558 -5.471,-4.813 -12.367,-9.649 -19.128,-13.427 5.445,-1.316 20.258,-4.592 32.862,-4.592 6.139,0 10.952,0.777 14.306,2.308 C -3.163,-14.096 1.46,-7.98 0,0"
         style="fill:#e9e9e9;fill-opacity:1;fill-rule:nonzero;stroke:none"
         id="path5492"
         inkscape:connector-curvature="0" />
    </g>
  </g>
</svg>
